<mxfile host="app.diagrams.net" agent="Mozilla/5.0 (Macintosh; Intel Mac OS X 10_15_7) AppleWebKit/605.1.15 (KHTML, like Gecko) Version/18.3.1 Safari/605.1.15" version="26.2.14">
  <diagram name="Page-1" id="xehM_Ya8oRUwhvenDl76">
    <mxGraphModel dx="889" dy="681" grid="1" gridSize="10" guides="1" tooltips="1" connect="1" arrows="1" fold="1" page="1" pageScale="1" pageWidth="850" pageHeight="1100" math="0" shadow="0">
      <root>
        <mxCell id="0" />
        <mxCell id="1" parent="0" />
        <mxCell id="-DzF3w2aBK9BKHCO03vC-14" style="edgeStyle=none;rounded=0;orthogonalLoop=1;jettySize=auto;html=1;" edge="1" parent="1" source="-DzF3w2aBK9BKHCO03vC-15" target="-DzF3w2aBK9BKHCO03vC-5">
          <mxGeometry relative="1" as="geometry" />
        </mxCell>
        <mxCell id="-DzF3w2aBK9BKHCO03vC-1" value="«component»&lt;br&gt;&lt;b&gt;Firestore database&lt;/b&gt;" style="html=1;dropTarget=0;whiteSpace=wrap;" vertex="1" parent="1">
          <mxGeometry x="380" y="120" width="180" height="90" as="geometry" />
        </mxCell>
        <mxCell id="-DzF3w2aBK9BKHCO03vC-2" value="" style="shape=module;jettyWidth=8;jettyHeight=4;" vertex="1" parent="-DzF3w2aBK9BKHCO03vC-1">
          <mxGeometry x="1" width="20" height="20" relative="1" as="geometry">
            <mxPoint x="-27" y="7" as="offset" />
          </mxGeometry>
        </mxCell>
        <mxCell id="-DzF3w2aBK9BKHCO03vC-3" value="«component»&lt;br&gt;&lt;b&gt;Supabase database&lt;/b&gt;" style="html=1;dropTarget=0;whiteSpace=wrap;" vertex="1" parent="1">
          <mxGeometry x="640" y="210" width="180" height="90" as="geometry" />
        </mxCell>
        <mxCell id="-DzF3w2aBK9BKHCO03vC-4" value="" style="shape=module;jettyWidth=8;jettyHeight=4;" vertex="1" parent="-DzF3w2aBK9BKHCO03vC-3">
          <mxGeometry x="1" width="20" height="20" relative="1" as="geometry">
            <mxPoint x="-27" y="7" as="offset" />
          </mxGeometry>
        </mxCell>
        <mxCell id="-DzF3w2aBK9BKHCO03vC-5" value="«component»&lt;br&gt;&lt;b&gt;NextJS Server&lt;/b&gt;" style="html=1;dropTarget=0;whiteSpace=wrap;" vertex="1" parent="1">
          <mxGeometry x="380" y="310" width="180" height="90" as="geometry" />
        </mxCell>
        <mxCell id="-DzF3w2aBK9BKHCO03vC-6" value="" style="shape=module;jettyWidth=8;jettyHeight=4;" vertex="1" parent="-DzF3w2aBK9BKHCO03vC-5">
          <mxGeometry x="1" width="20" height="20" relative="1" as="geometry">
            <mxPoint x="-27" y="7" as="offset" />
          </mxGeometry>
        </mxCell>
        <mxCell id="-DzF3w2aBK9BKHCO03vC-12" style="rounded=0;orthogonalLoop=1;jettySize=auto;html=1;" edge="1" parent="1" source="-DzF3w2aBK9BKHCO03vC-7" target="-DzF3w2aBK9BKHCO03vC-5">
          <mxGeometry relative="1" as="geometry" />
        </mxCell>
        <mxCell id="-DzF3w2aBK9BKHCO03vC-7" value="«component»&lt;br&gt;&lt;b&gt;Firestore auth&lt;/b&gt;" style="html=1;dropTarget=0;whiteSpace=wrap;" vertex="1" parent="1">
          <mxGeometry x="80" y="180" width="180" height="90" as="geometry" />
        </mxCell>
        <mxCell id="-DzF3w2aBK9BKHCO03vC-8" value="" style="shape=module;jettyWidth=8;jettyHeight=4;" vertex="1" parent="-DzF3w2aBK9BKHCO03vC-7">
          <mxGeometry x="1" width="20" height="20" relative="1" as="geometry">
            <mxPoint x="-27" y="7" as="offset" />
          </mxGeometry>
        </mxCell>
        <mxCell id="-DzF3w2aBK9BKHCO03vC-11" value="" style="shape=providedRequiredInterface;html=1;verticalLabelPosition=bottom;sketch=0;" vertex="1" parent="1">
          <mxGeometry x="277" y="263" width="20" height="20" as="geometry" />
        </mxCell>
        <mxCell id="-DzF3w2aBK9BKHCO03vC-13" value="Read&lt;div&gt;Write&lt;/div&gt;&lt;div&gt;Interface&lt;/div&gt;" style="text;html=1;align=center;verticalAlign=middle;resizable=0;points=[];autosize=1;strokeColor=none;fillColor=none;" vertex="1" parent="1">
          <mxGeometry x="240" y="290" width="70" height="60" as="geometry" />
        </mxCell>
        <mxCell id="-DzF3w2aBK9BKHCO03vC-16" value="" style="edgeStyle=none;rounded=0;orthogonalLoop=1;jettySize=auto;html=1;" edge="1" parent="1" source="-DzF3w2aBK9BKHCO03vC-1" target="-DzF3w2aBK9BKHCO03vC-15">
          <mxGeometry relative="1" as="geometry">
            <mxPoint x="470" y="210" as="sourcePoint" />
            <mxPoint x="470" y="310" as="targetPoint" />
          </mxGeometry>
        </mxCell>
        <mxCell id="-DzF3w2aBK9BKHCO03vC-15" value="" style="shape=providedRequiredInterface;html=1;verticalLabelPosition=bottom;sketch=0;rotation=90;" vertex="1" parent="1">
          <mxGeometry x="460" y="220" width="20" height="20" as="geometry" />
        </mxCell>
        <mxCell id="-DzF3w2aBK9BKHCO03vC-17" value="Read&lt;div&gt;Write&lt;/div&gt;&lt;div&gt;Interface&lt;/div&gt;" style="text;html=1;align=center;verticalAlign=middle;resizable=0;points=[];autosize=1;strokeColor=none;fillColor=none;" vertex="1" parent="1">
          <mxGeometry x="490" y="220" width="70" height="60" as="geometry" />
        </mxCell>
        <mxCell id="-DzF3w2aBK9BKHCO03vC-18" style="edgeStyle=none;rounded=0;orthogonalLoop=1;jettySize=auto;html=1;entryX=1;entryY=0.25;entryDx=0;entryDy=0;" edge="1" parent="1" source="-DzF3w2aBK9BKHCO03vC-3" target="-DzF3w2aBK9BKHCO03vC-5">
          <mxGeometry relative="1" as="geometry">
            <mxPoint x="630" y="400" as="targetPoint" />
          </mxGeometry>
        </mxCell>
        <mxCell id="-DzF3w2aBK9BKHCO03vC-20" value="Read&lt;div&gt;Write&lt;/div&gt;&lt;div&gt;Interface&lt;/div&gt;" style="text;html=1;align=center;verticalAlign=middle;resizable=0;points=[];autosize=1;strokeColor=none;fillColor=none;" vertex="1" parent="1">
          <mxGeometry x="620" y="310" width="70" height="60" as="geometry" />
        </mxCell>
        <mxCell id="-DzF3w2aBK9BKHCO03vC-19" value="" style="shape=providedRequiredInterface;html=1;verticalLabelPosition=bottom;sketch=0;rotation=-210;" vertex="1" parent="1">
          <mxGeometry x="612" y="294" width="20" height="20" as="geometry" />
        </mxCell>
        <mxCell id="-DzF3w2aBK9BKHCO03vC-22" value="«component»&lt;br&gt;&lt;b&gt;Frida Planner API&lt;/b&gt;" style="html=1;dropTarget=0;whiteSpace=wrap;" vertex="1" parent="1">
          <mxGeometry x="580" y="470" width="180" height="90" as="geometry" />
        </mxCell>
        <mxCell id="-DzF3w2aBK9BKHCO03vC-23" value="" style="shape=module;jettyWidth=8;jettyHeight=4;" vertex="1" parent="-DzF3w2aBK9BKHCO03vC-22">
          <mxGeometry x="1" width="20" height="20" relative="1" as="geometry">
            <mxPoint x="-27" y="7" as="offset" />
          </mxGeometry>
        </mxCell>
        <mxCell id="-DzF3w2aBK9BKHCO03vC-24" style="edgeStyle=none;rounded=0;orthogonalLoop=1;jettySize=auto;html=1;entryX=0.913;entryY=1.017;entryDx=0;entryDy=0;entryPerimeter=0;exitX=-0.008;exitY=0.103;exitDx=0;exitDy=0;exitPerimeter=0;" edge="1" parent="1" source="-DzF3w2aBK9BKHCO03vC-22" target="-DzF3w2aBK9BKHCO03vC-5">
          <mxGeometry relative="1" as="geometry">
            <mxPoint x="620" y="427" as="targetPoint" />
            <mxPoint x="700" y="390" as="sourcePoint" />
          </mxGeometry>
        </mxCell>
        <mxCell id="-DzF3w2aBK9BKHCO03vC-25" value="" style="shape=providedRequiredInterface;html=1;verticalLabelPosition=bottom;sketch=0;rotation=-130;" vertex="1" parent="1">
          <mxGeometry x="558" y="445" width="20" height="20" as="geometry" />
        </mxCell>
        <mxCell id="-DzF3w2aBK9BKHCO03vC-26" value="Readonly&amp;nbsp;&lt;div&gt;interface&lt;/div&gt;" style="text;html=1;align=center;verticalAlign=middle;resizable=0;points=[];autosize=1;strokeColor=none;fillColor=none;" vertex="1" parent="1">
          <mxGeometry x="580" y="420" width="80" height="40" as="geometry" />
        </mxCell>
        <mxCell id="-DzF3w2aBK9BKHCO03vC-27" value="«component»&lt;br&gt;&lt;b&gt;Gemini API&lt;/b&gt;" style="html=1;dropTarget=0;whiteSpace=wrap;" vertex="1" parent="1">
          <mxGeometry x="353" y="488" width="180" height="90" as="geometry" />
        </mxCell>
        <mxCell id="-DzF3w2aBK9BKHCO03vC-28" value="" style="shape=module;jettyWidth=8;jettyHeight=4;" vertex="1" parent="-DzF3w2aBK9BKHCO03vC-27">
          <mxGeometry x="1" width="20" height="20" relative="1" as="geometry">
            <mxPoint x="-27" y="7" as="offset" />
          </mxGeometry>
        </mxCell>
        <mxCell id="-DzF3w2aBK9BKHCO03vC-29" style="edgeStyle=none;rounded=0;orthogonalLoop=1;jettySize=auto;html=1;exitX=0.651;exitY=-0.007;exitDx=0;exitDy=0;exitPerimeter=0;" edge="1" parent="1" source="-DzF3w2aBK9BKHCO03vC-27" target="-DzF3w2aBK9BKHCO03vC-5">
          <mxGeometry relative="1" as="geometry">
            <mxPoint x="317" y="420" as="targetPoint" />
            <mxPoint x="470" y="480" as="sourcePoint" />
          </mxGeometry>
        </mxCell>
        <mxCell id="-DzF3w2aBK9BKHCO03vC-30" value="" style="shape=providedRequiredInterface;html=1;verticalLabelPosition=bottom;sketch=0;rotation=-90;" vertex="1" parent="1">
          <mxGeometry x="459" y="443" width="20" height="20" as="geometry" />
        </mxCell>
        <mxCell id="-DzF3w2aBK9BKHCO03vC-31" value="Readonly&amp;nbsp;&lt;div&gt;interface&lt;/div&gt;" style="text;html=1;align=center;verticalAlign=middle;resizable=0;points=[];autosize=1;strokeColor=none;fillColor=none;" vertex="1" parent="1">
          <mxGeometry x="370" y="435" width="80" height="40" as="geometry" />
        </mxCell>
      </root>
    </mxGraphModel>
  </diagram>
</mxfile>
